<svg xmlns="http://www.w3.org/2000/svg" version="1.0" width="2048.000000pt" height="2048.000000pt" viewBox="-3 -3 2054 2054" preserveAspectRatio="xMidYMid meet"><g id="deeditor_bgCarrier" stroke-width="0">
  <rect id="dee_c_e" x="-3" y="-3" width="2054" height="2054" rx="38.4" fill="#0b4ea2" strokewidth="0"/>
</g>

<g transform="translate(0.000000,2048.000000) scale(0.100000,-0.100000)" fill="#ffc107" stroke="none">
<path d="M7694 15559 c-55 -9 -95 -59 -183 -230 -40 -79 -98 -185 -127 -236 -30 -50 -54 -93 -54 -95 0 -3 -30 -58 -66 -124 -66 -120 -82 -149 -202 -369 -36 -66 -87 -160 -115 -210 -87 -156 -117 -215 -109 -215 842 1 1872 -4 1917 -10 55 -6 51 -7 -50 -10 -60 -1 -116 -2 -122 -1 -7 1 -13 -8 -13 -21 0 -28 27 -145 39 -173 5 -11 16 -36 24 -55 24 -53 110 -179 154 -225 123 -127 199 -169 453 -248 52 -16 273 -11 345 8 33 9 75 20 94 25 63 16 218 101 283 154 64 53 155 163 182 221 66 141 96 229 96 285 0 22 1 40 3 40 1 1 774 3 1717 6 943 3 1716 7 1718 9 2 2 -8 21 -21 42 -14 22 -43 75 -66 119 -40 77 -65 123 -141 254 -20 36 -68 124 -105 195 -76 146 -91 173 -220 405 -51 91 -116 211 -146 268 -65 125 -108 178 -152 188 -38 9 -5077 12 -5133 3z" fill="#ffc107"/>
<path d="M7840 13333 c-54 -9 -128 -12 -202 -9 l-118 5 0 -1094 0 -1095 -252 0 c-225 0 -258 -3 -294 -19 -91 -41 -143 -132 -131 -226 10 -72 61 -141 130 -176 37 -19 86 -20 3187 -17 1733 2 3150 -1 3150 -5 0 -19 -81 -111 -199 -229 l-124 -123 -1 -70 c-1 -38 0 -159 2 -267 1 -155 5 -198 15 -198 12 0 160 147 252 250 76 86 350 385 435 475 128 136 187 201 275 300 44 49 86 97 94 105 12 12 54 16 221 20 219 5 223 6 283 62 65 61 77 163 28 240 -16 25 -44 56 -62 69 -34 24 -36 24 -319 27 -356 4 -336 10 -501 -156 l-116 -117 -49 25 c-48 25 -54 25 -306 28 -193 2 -258 6 -258 15 0 7 0 498 0 1093 l0 1080 -167 0 c-113 0 -180 4 -206 13 -21 7 -41 11 -44 8 -3 -4 -7 -500 -9 -1103 -2 -603 -5 -1098 -6 -1100 -2 -1 -442 0 -978 4 -715 5 -978 4 -987 -4 -6 -6 -31 -10 -55 -8 -124 9 -2059 16 -2084 7 -18 -6 -123 -8 -266 -5 l-238 5 0 1098 c0 604 -3 1099 -7 1101 -5 2 -46 -2 -93 -9z" fill="#ffc107"/>
<path d="M8365 12426 c-43 -18 -79 -65 -95 -119 -11 -41 -10 -51 6 -90 11 -27 32 -53 53 -68 l36 -24 785 0 c764 0 786 1 818 20 47 28 82 86 82 136 0 47 -36 105 -85 135 -29 18 -63 19 -800 21 -627 2 -776 0 -800 -11z" fill="#ffc107"/>
<path d="M10490 11927 c-67 -32 -65 -21 -68 -318 l-3 -269 30 -44 c42 -60 110 -126 132 -126 6 0 -11 21 -39 48 -27 26 -61 63 -76 83 l-26 36 4 204 c3 112 5 207 5 210 1 3 14 6 31 6 26 0 28 -3 17 -16 -6 -9 -16 -19 -21 -23 -6 -4 -5 -12 3 -21 9 -12 9 -16 -1 -20 -10 -4 -10 -6 0 -6 14 -1 17 -31 2 -31 -5 0 -10 5 -10 12 0 6 -3 8 -6 5 -4 -4 1 -18 11 -33 15 -23 15 -26 2 -21 -11 4 -14 2 -10 -9 3 -7 -1 -14 -8 -14 -7 0 -10 -3 -6 -6 3 -4 18 3 33 15 15 11 22 21 15 21 -6 0 -11 7 -11 15 0 8 5 15 10 15 6 0 10 -7 10 -15 0 -8 5 -15 10 -15 6 0 10 7 10 15 0 8 -4 15 -10 15 -5 0 -10 7 -10 15 0 8 -6 15 -12 15 -9 0 -8 4 2 10 8 5 24 7 35 3 18 -5 19 -4 5 13 -8 10 -16 21 -17 23 -2 3 -10 -4 -18 -15 -13 -17 -14 -17 -15 -1 0 9 5 17 10 17 6 0 10 7 10 15 0 8 5 15 10 15 6 0 10 -7 10 -15 0 -8 5 -15 10 -15 6 0 10 -7 10 -15 0 -8 5 -15 10 -15 6 0 10 7 10 15 0 8 5 15 10 15 6 0 10 -7 10 -15 0 -8 -6 -15 -12 -15 -9 0 -8 -4 2 -10 10 -6 11 -10 3 -10 -7 0 -13 -7 -13 -15 0 -8 5 -15 10 -15 6 0 10 7 10 15 0 8 6 15 13 15 8 0 7 4 -3 10 -10 6 -11 10 -2 10 6 0 12 7 12 15 0 8 5 15 10 15 6 0 10 -7 10 -15 0 -8 5 -15 10 -15 6 0 10 7 10 15 0 8 5 15 10 15 13 0 13 -13 0 -26 -7 -7 -1 -11 20 -11 30 0 41 12 18 20 -7 2 -10 8 -5 12 4 5 14 0 21 -11 9 -11 10 -21 5 -25 -5 -3 5 -6 23 -6 29 0 30 1 10 10 -12 6 -22 16 -22 24 0 16 17 17 23 1 2 -7 7 -11 10 -8 3 3 -1 14 -9 25 -13 17 -16 18 -24 5 -9 -13 -11 -13 -21 0 -8 11 -12 12 -16 3 -7 -18 -16 -16 -30 5 -11 18 -7 19 68 17 44 -1 81 1 84 4 2 4 -38 6 -88 6 -103 -2 -117 1 -117 21 0 17 17 18 23 2 4 -10 8 -9 16 2 10 13 12 13 21 0 9 -13 11 -13 20 0 9 13 11 13 20 0 9 -13 11 -13 20 0 9 13 11 13 19 0 6 -8 12 -12 15 -10 2 3 -3 14 -11 25 -11 14 -17 16 -20 8 -6 -17 -23 -16 -23 1 0 18 17 24 61 21 20 -2 41 0 48 4 6 4 -33 7 -88 6 -93 -1 -98 0 -88 17 14 21 23 23 30 6 4 -10 8 -9 16 2 10 13 12 13 20 0 6 -8 12 -12 15 -10 2 3 -2 14 -10 25 -13 17 -16 18 -24 5 -9 -13 -11 -13 -20 0 -7 10 -12 12 -17 4 -9 -12 -41 -13 -60 -1 -6 4 -14 3 -18 -2 -3 -6 -13 -7 -22 -4 -13 5 -13 3 2 -20 22 -35 6 -35 -24 -1 -12 14 -25 23 -29 19 -4 -3 11 -21 33 -40 22 -18 36 -37 32 -41 -4 -5 -12 -2 -18 6 -8 13 -10 13 -19 0 -9 -13 -11 -13 -20 0 -8 13 -11 12 -24 -5 -8 -11 -12 -22 -9 -25 3 -3 8 1 10 8 6 16 23 15 23 -2 0 -34 -54 -28 -64 7 -15 58 7 101 61 116 15 4 375 7 798 5 424 -1 779 2 790 6 11 5 -327 9 -751 9 -424 1 -784 3 -800 6 -16 2 -40 -1 -54 -8z m109 -68 c11 -19 11 -21 -4 -15 -9 3 -19 6 -21 6 -2 0 -4 7 -4 15 0 21 13 19 29 -6z m31 6 c0 -8 -4 -15 -10 -15 -5 0 -10 7 -10 15 0 8 5 15 10 15 6 0 10 -7 10 -15z m-13 -47 c-7 -10 -15 -18 -19 -18 -5 0 -8 -6 -8 -14 0 -17 -25 -27 -47 -19 -10 3 -15 3 -11 -2 4 -4 24 -9 45 -11 25 -2 32 0 23 7 -21 12 -6 11 25 -3 14 -6 25 -17 25 -25 0 -17 -17 -17 -23 0 -4 9 -8 8 -16 -3 -10 -13 -12 -13 -21 0 -8 12 -12 13 -19 2 -6 -11 -14 -9 -33 11 -22 22 -23 27 -11 43 11 16 15 16 22 5 8 -12 12 -12 26 3 13 12 14 20 6 30 -8 10 -4 13 18 13 26 0 28 -2 18 -19z m86 15 c-7 -3 -13 -11 -13 -19 0 -17 -17 -19 -23 -1 -4 9 -8 8 -16 -3 -5 -8 -13 -11 -17 -7 -13 13 16 34 48 34 18 0 27 -2 21 -4z" fill="#ffc107"/>
<path d="M8327 11919 c-39 -23 -44 -54 -45 -319 -1 -140 3 -262 8 -270 5 -9 9 92 9 259 0 302 1 309 63 328 29 10 30 11 8 12 -14 0 -33 -4 -43 -10z" fill="#ffc107"/>
<path d="M9996 11905 c5 -11 9 -141 9 -290 0 -297 -1 -302 -65 -374 -16 -18 -30 -36 -30 -39 0 -13 64 57 86 93 23 40 23 45 24 313 1 240 -1 275 -16 294 -14 19 -15 20 -8 3z" fill="#ffc107"/>
<path d="M12173 11893 l28 -30 2 -257 c1 -180 -1 -259 -9 -264 -14 -9 -28 -52 -17 -52 4 0 16 14 26 31 15 27 17 61 17 287 -1 273 -1 276 -50 302 -25 12 -25 12 3 -17z" fill="#ffc107"/>
<path d="M11679 11879 c-7 -4 -10 -11 -6 -16 5 -4 13 -1 18 7 8 11 12 12 16 3 2 -7 8 -13 13 -13 4 0 10 6 13 13 5 14 -34 19 -54 6z" fill="#ffc107"/>
<path d="M11510 11870 c0 -5 5 -10 11 -10 5 0 7 5 4 10 -3 6 -8 10 -11 10 -2 0 -4 -4 -4 -10z" fill="#ffc107"/>
<path d="M11595 11870 c-3 -5 -1 -10 4 -10 6 0 11 5 11 10 0 6 -2 10 -4 10 -3 0 -8 -4 -11 -10z" fill="#ffc107"/>
<path d="M10476 11855 c-3 -9 -6 -18 -6 -19 0 -2 14 -3 31 -3 26 0 28 2 12 10 -10 6 -21 14 -24 19 -3 6 -9 2 -13 -7z" fill="#ffc107"/>
<path d="M11486 11842 c-2 -4 4 -8 14 -8 10 0 16 4 14 8 -3 4 -9 8 -14 8 -5 0 -11 -4 -14 -8z" fill="#ffc107"/>
<path d="M11536 11841 c7 -7 154 -9 159 -2 1 3 -35 6 -81 6 -46 1 -81 -1 -78 -4z" fill="#ffc107"/>
<path d="M11760 11840 c-9 -6 -10 -10 -3 -10 6 0 15 5 18 10 8 12 4 12 -15 0z" fill="#ffc107"/>
<path d="M10620 11681 c10 -7 11 -11 3 -11 -7 0 -13 -7 -13 -15 0 -8 -4 -15 -10 -15 -11 0 -14 -29 -2 -31 56 -10 92 -3 92 17 0 17 -17 18 -23 2 -4 -10 -8 -9 -16 2 -10 13 -12 13 -20 0 -6 -8 -13 -11 -16 -8 -4 4 2 17 14 29 17 19 21 20 21 6 0 -20 16 -23 22 -5 5 13 15 5 48 -36 14 -18 13 -18 -10 -11 -14 4 -22 4 -18 0 12 -12 77 -14 84 -3 4 6 2 8 -4 5 -15 -10 -42 3 -42 19 0 17 17 18 23 2 2 -7 7 -11 10 -8 3 3 -2 14 -10 25 -11 14 -17 16 -20 8 -7 -18 -23 -16 -23 2 0 16 -1 16 -40 20 -14 1 -34 5 -45 10 -16 5 -17 5 -5 -4z" fill="#ffc107"/>
<path d="M11483 11683 c-10 -3 -9 -8 2 -20 13 -13 17 -13 30 0 13 13 13 16 -1 21 -9 3 -16 6 -17 5 -1 0 -8 -3 -14 -6z" fill="#ffc107"/>
<path d="M10518 11673 c6 -3 12 -11 12 -19 0 -8 5 -14 10 -14 20 0 9 -21 -20 -38 -16 -9 -30 -23 -30 -29 0 -7 -4 -13 -10 -13 -5 0 -10 -7 -10 -15 0 -8 -5 -15 -12 -15 -6 0 -9 -2 -6 -5 8 -8 38 6 38 17 0 15 57 68 72 67 7 0 3 -5 -9 -11 -23 -11 -32 -38 -13 -38 6 0 10 7 10 15 0 8 5 15 10 15 6 0 10 -7 10 -15 0 -8 -4 -15 -10 -15 -5 0 -10 -7 -10 -15 0 -8 5 -15 10 -15 6 0 10 7 10 15 0 8 5 15 10 15 6 0 10 -7 10 -15 0 -8 -6 -15 -12 -15 -9 0 -8 -4 2 -10 10 -6 11 -10 3 -10 -7 0 -13 -7 -13 -15 0 -8 5 -15 10 -15 6 0 10 -7 10 -15 0 -8 -4 -15 -10 -15 -5 0 -10 6 -10 14 0 8 -6 16 -12 19 -10 3 -10 7 1 20 14 18 12 20 -13 11 -9 -3 -16 -12 -16 -20 0 -8 -4 -14 -10 -14 -13 0 -13 13 1 27 10 10 -15 11 -63 4 -11 -1 -10 -31 1 -31 5 0 11 6 14 13 2 6 8 9 12 5 4 -4 2 -14 -5 -23 -7 -9 -8 -15 -2 -15 6 0 13 6 15 13 4 9 8 8 17 -3 9 -11 13 -12 17 -2 7 17 23 15 23 -3 0 -8 -6 -15 -12 -16 -7 0 -3 -5 10 -11 12 -6 22 -15 22 -20 0 -22 50 -61 81 -63 27 -2 30 0 16 10 -18 13 -23 35 -8 35 5 0 12 -6 14 -12 4 -10 8 -9 16 2 9 13 12 13 20 1 8 -12 12 -12 26 3 10 9 14 20 11 24 -4 3 -11 0 -17 -8 -8 -13 -10 -13 -20 0 -8 11 -12 12 -16 3 -7 -18 -16 -16 -31 8 -12 19 -11 20 7 14 11 -3 23 -1 27 6 4 7 3 9 -4 6 -15 -10 -42 3 -42 19 0 17 17 18 23 2 3 -9 9 -7 20 7 8 11 13 22 10 25 -3 3 -8 -1 -10 -7 -6 -17 -23 -16 -23 1 0 16 27 29 42 19 7 -4 8 -1 4 6 -5 7 -14 10 -22 7 -20 -8 -44 4 -44 20 0 8 -4 14 -10 14 -5 0 -10 -7 -10 -15 0 -8 -4 -15 -10 -15 -5 0 -10 7 -10 15 0 8 -4 15 -10 15 -5 0 -10 7 -10 15 0 8 5 15 10 15 6 0 10 -7 10 -15 0 -8 5 -15 10 -15 6 0 10 8 10 18 0 13 6 10 26 -13 21 -24 27 -27 35 -15 8 13 10 13 18 1 8 -12 12 -12 26 3 10 9 14 20 11 24 -4 3 -11 0 -16 -8 -8 -13 -12 -12 -25 7 -12 16 -23 21 -52 18 -43 -3 -83 12 -83 32 0 7 -4 13 -10 13 -14 0 -12 28 3 33 6 2 -4 4 -23 4 -19 0 -29 -2 -22 -4z m168 -110 c-10 -10 -19 5 -10 18 6 11 8 11 12 0 2 -7 1 -15 -2 -18z m-18 -48 c4 -4 -4 -4 -18 0 -23 7 -24 6 -11 -9 12 -15 13 -19 1 -26 -12 -7 -11 -11 1 -26 13 -15 12 -16 -11 -10 -25 6 -25 6 -2 -5 22 -12 31 -39 12 -39 -5 0 -10 6 -10 14 0 8 -7 17 -16 20 -25 10 -26 7 -4 -16 11 -12 20 -28 20 -35 0 -7 5 -13 12 -13 6 0 9 -2 6 -5 -9 -9 -38 7 -38 21 0 8 -4 14 -10 14 -5 0 -10 6 -10 13 0 8 -10 19 -22 26 -13 6 -15 9 -5 7 9 -3 24 -3 32 0 17 7 21 34 5 34 -5 0 -10 7 -10 15 0 8 6 15 13 15 8 0 7 3 -3 9 -9 7 -2 9 23 7 21 -2 41 -7 45 -11z" fill="#ffc107"/>
<path d="M10610 11490 c0 -5 5 -10 10 -10 6 0 10 5 10 10 0 6 -4 10 -10 10 -5 0 -10 -4 -10 -10z" fill="#ffc107"/>
<path d="M10510 11546 c0 -8 -6 -16 -12 -18 -7 -3 3 -5 22 -5 19 0 29 2 23 5 -7 2 -13 10 -13 18 0 8 -4 14 -10 14 -5 0 -10 -6 -10 -14z" fill="#ffc107"/>
<path d="M10464 11438 c9 -5 23 -5 32 0 12 6 7 9 -16 9 -23 0 -28 -3 -16 -9z" fill="#ffc107"/>
<path d="M10530 11410 c0 -5 5 -10 10 -10 19 0 10 -27 -12 -38 -13 -6 -17 -11 -10 -11 6 -1 12 -8 12 -17 0 -8 5 -12 10 -9 7 5 8 11 1 19 -7 8 -4 15 10 24 16 10 17 15 7 32 -14 21 -28 26 -28 10z" fill="#ffc107"/>
<path d="M10470 11390 c0 -5 5 -10 11 -10 5 0 7 5 4 10 -3 6 -8 10 -11 10 -2 0 -4 -4 -4 -10z" fill="#ffc107"/>
<path d="M10565 11361 c-4 -7 1 -8 12 -4 16 6 17 5 3 -13 -8 -10 -18 -21 -22 -24 -9 -8 -14 -39 -5 -39 22 -2 25 1 20 19 -6 21 13 28 19 8 3 -9 10 -8 22 5 10 10 15 21 11 25 -4 4 -10 1 -12 -5 -8 -22 -24 -14 -21 9 3 22 -16 36 -27 19z" fill="#ffc107"/>
<path d="M10726 11362 c-2 -4 4 -8 14 -8 10 0 16 4 14 8 -3 4 -9 8 -14 8 -5 0 -11 -4 -14 -8z" fill="#ffc107"/>
<path d="M10643 11321 c-9 -14 -9 -21 0 -31 9 -10 7 -11 -13 -6 -21 6 -22 5 -7 -4 12 -8 22 -8 35 -1 9 6 11 11 5 11 -15 0 -18 30 -3 30 6 0 10 -4 10 -10 0 -5 5 -10 10 -10 6 0 5 8 -2 20 -16 25 -20 25 -35 1z" fill="#ffc107"/>
<path d="M8300 11298 c0 -8 7 -21 15 -28 19 -16 19 -1 0 24 -12 16 -15 17 -15 4z" fill="#ffc107"/>
<path d="M10685 11280 c-3 -6 1 -7 9 -4 18 7 21 14 7 14 -6 0 -13 -4 -16 -10z" fill="#ffc107"/>
<path d="M10520 11265 c7 -9 15 -13 17 -11 7 7 -7 26 -19 26 -6 0 -6 -6 2 -15z" fill="#ffc107"/>
<path d="M12150 11269 c0 -5 5 -7 10 -4 6 3 10 8 10 11 0 2 -4 4 -10 4 -5 0 -10 -5 -10 -11z" fill="#ffc107"/>
<path d="M10610 11250 c0 -5 5 -10 10 -10 6 0 10 5 10 10 0 6 -4 10 -10 10 -5 0 -10 -4 -10 -10z" fill="#ffc107"/>
<path d="M10650 11250 c0 -5 5 -10 10 -10 6 0 10 5 10 10 0 6 -4 10 -10 10 -5 0 -10 -4 -10 -10z" fill="#ffc107"/>
<path d="M12120 11241 c-6 -12 -16 -21 -23 -21 -16 -1 -66 -39 -51 -40 6 0 17 7 24 15 7 8 16 13 20 10 9 -6 55 43 48 51 -4 3 -11 -4 -18 -15z" fill="#ffc107"/>
<path d="M8344 11235 c11 -8 24 -15 30 -15 5 0 1 7 -10 15 -10 8 -23 14 -29 14 -5 0 -1 -6 9 -14z" fill="#ffc107"/>
<path d="M10555 11230 c3 -5 8 -10 11 -10 2 0 4 5 4 10 0 6 -5 10 -11 10 -5 0 -7 -4 -4 -10z" fill="#ffc107"/>
<path d="M8385 11200 c3 -5 8 -10 11 -10 2 0 4 5 4 10 0 6 -5 10 -11 10 -5 0 -7 -4 -4 -10z" fill="#ffc107"/>
<path d="M9885 11190 c-3 -5 -1 -10 4 -10 6 0 11 5 11 10 0 6 -2 10 -4 10 -3 0 -8 -4 -11 -10z" fill="#ffc107"/>
<path d="M8795 9866 c-139 -23 -340 -91 -445 -149 -352 -195 -591 -502 -680 -875 -45 -188 -47 -368 -5 -592 66 -348 299 -691 600 -882 128 -80 296 -151 455 -190 117 -29 430 -32 565 -5 478 96 885 453 1039 912 15 44 31 98 36 120 5 22 16 72 25 110 22 94 23 312 2 425 -67 358 -249 659 -524 866 -147 111 -376 213 -562 250 -105 21 -402 27 -506 10z m55 -686 l0 -300 -38 -19 c-44 -23 -127 -103 -148 -143 l-15 -28 -294 0 -295 0 0 38 c1 39 22 110 61 202 37 90 115 194 224 298 87 85 117 106 206 150 105 52 235 100 277 101 l22 1 0 -300z m486 269 c84 -25 242 -108 304 -158 165 -133 281 -309 326 -491 7 -30 13 -67 14 -82 l0 -28 -289 0 -289 0 -25 43 c-28 47 -94 112 -145 142 l-33 20 2 275 c1 151 4 281 6 288 7 18 52 15 129 -9z m-191 -697 c129 -61 195 -196 155 -318 -28 -87 -103 -162 -191 -192 -50 -17 -87 -15 -162 8 -184 57 -250 258 -140 423 69 102 216 136 338 79z m-473 -455 c37 -48 98 -105 143 -133 l40 -26 -2 -211 c-2 -117 -5 -244 -9 -284 -5 -67 -7 -72 -35 -83 -38 -16 -93 -2 -217 58 -170 81 -307 204 -407 364 -73 116 -135 265 -135 326 l0 22 299 0 299 0 24 -33z m1303 23 c11 -18 -26 -144 -67 -228 -60 -123 -113 -199 -192 -277 -133 -132 -346 -248 -456 -249 l-55 -1 0 285 0 285 44 24 c57 31 117 93 133 137 l12 34 287 0 c178 0 290 -4 294 -10z" fill="#ffc107"/>
<path d="M11720 7932 c0 -441 2 -459 63 -549 65 -94 215 -173 328 -173 59 0 155 25 204 55 63 36 137 115 170 181 l30 59 0 410 0 410 -397 3 -398 2 0 -398z" fill="#ffc107"/>
<path d="M6440 6467 c-54 -15 -106 -45 -139 -81 -14 -14 -29 -26 -35 -25 -6 0 -25 19 -41 42 -56 77 -145 86 -227 24 -83 -63 -83 -58 -86 -517 -2 -223 0 -419 3 -437 3 -17 25 -53 48 -79 38 -42 48 -47 95 -52 86 -8 138 21 178 100 23 46 24 54 24 286 0 300 12 353 92 407 47 32 99 39 144 20 43 -18 58 -34 86 -94 19 -41 20 -58 17 -320 -4 -313 -4 -316 73 -371 73 -53 165 -36 233 43 l35 41 0 269 c0 293 4 323 53 383 59 71 147 85 210 33 75 -62 77 -72 77 -394 0 -318 1 -322 67 -372 31 -24 46 -28 99 -28 53 0 68 4 105 30 80 57 80 57 76 420 -3 299 -4 324 -25 387 -47 141 -148 247 -269 283 -68 20 -196 19 -259 -2 -57 -19 -139 -69 -173 -107 -14 -14 -30 -26 -36 -26 -6 0 -31 19 -56 43 -25 23 -69 55 -99 72 -47 24 -68 29 -140 32 -48 2 -105 -3 -130 -10z" fill="#ffc107"/>
<path d="M8164 6465 c-158 -38 -307 -182 -373 -360 -32 -85 -39 -237 -16 -339 26 -119 105 -247 196 -319 178 -140 403 -148 580 -20 26 18 51 33 55 33 5 0 22 -16 38 -36 43 -54 82 -74 146 -74 66 0 112 22 153 72 44 55 46 102 6 173 l-33 59 -2 337 c-1 186 -5 348 -9 361 -23 75 -97 124 -173 115 -40 -4 -53 -12 -89 -51 -23 -25 -44 -46 -47 -46 -3 0 -26 14 -51 31 -106 72 -251 96 -381 64z m274 -319 c36 -18 87 -71 109 -112 9 -16 18 -64 21 -109 4 -68 1 -89 -18 -133 -25 -57 -71 -104 -127 -127 -139 -58 -312 70 -313 231 0 99 55 209 123 246 57 30 150 32 205 4z" fill="#ffc107"/>
<path d="M9669 6471 c-54 -18 -106 -46 -142 -79 l-39 -34 -34 40 c-18 22 -52 47 -75 56 -57 23 -122 8 -172 -39 -70 -66 -69 -61 -71 -537 l-1 -426 31 -39 c45 -56 87 -75 153 -69 61 5 112 40 145 96 18 30 20 56 22 290 1 141 5 272 9 291 20 89 107 157 188 146 51 -7 85 -32 111 -83 20 -37 21 -52 18 -329 -3 -326 -4 -322 74 -381 32 -25 47 -29 99 -29 75 0 125 29 155 91 18 37 20 61 20 295 0 280 7 326 59 382 65 70 169 76 224 13 51 -57 52 -64 57 -376 6 -326 7 -335 72 -382 68 -48 196 -21 244 51 23 35 23 43 29 319 7 321 -3 413 -56 512 -32 60 -96 134 -146 169 -88 61 -229 78 -343 41 -81 -26 -120 -51 -170 -107 l-40 -46 -52 54 c-80 82 -143 111 -253 115 -49 2 -102 0 -116 -5z" fill="#ffc107"/>
<path d="M12745 6462 c-22 -9 -68 -34 -101 -54 -66 -41 -84 -46 -84 -24 0 19 -64 74 -95 82 -66 17 -146 -25 -189 -99 l-25 -42 -2 -425 c-3 -475 -5 -459 68 -519 66 -55 162 -51 223 9 56 55 60 79 60 349 0 285 6 317 71 376 49 44 76 55 138 55 57 0 105 -28 135 -80 20 -33 21 -55 26 -335 6 -332 5 -327 72 -378 44 -33 85 -40 142 -26 57 14 109 70 124 132 5 24 8 170 7 337 -2 267 -4 301 -23 358 -39 118 -116 210 -225 268 -47 25 -64 28 -167 30 -91 3 -123 0 -155 -14z" fill="#ffc107"/>
<path d="M13870 6473 c-87 -14 -169 -61 -250 -143 -125 -127 -170 -235 -170 -410 0 -171 46 -285 159 -396 107 -105 202 -145 345 -145 78 -1 101 3 151 26 32 14 74 37 91 50 51 39 57 34 52 -38 -10 -125 -73 -185 -218 -208 -95 -14 -172 -1 -275 51 -102 50 -138 47 -201 -15 -74 -74 -70 -162 12 -234 89 -78 243 -116 447 -109 160 6 239 29 352 103 94 62 166 161 208 285 20 62 21 83 25 545 2 357 0 489 -9 517 -25 78 -115 128 -192 107 -35 -9 -107 -71 -107 -91 0 -16 -22 -7 -73 30 -89 65 -142 82 -246 81 -42 -1 -87 -4 -101 -6z m245 -322 c91 -41 154 -154 143 -255 -10 -87 -81 -182 -155 -207 -57 -18 -152 -8 -196 23 -130 89 -145 291 -29 401 58 56 162 72 237 38z" fill="#ffc107"/>
<path d="M11115 6454 c-43 -22 -64 -44 -86 -86 -17 -34 -19 -62 -19 -328 0 -322 4 -349 73 -469 108 -190 379 -285 612 -214 172 52 288 165 351 343 12 35 17 104 21 315 5 232 3 278 -11 327 -17 60 -64 112 -112 124 -48 12 -121 -2 -159 -30 -63 -48 -65 -58 -65 -330 0 -253 -8 -328 -41 -381 -42 -70 -157 -97 -228 -54 -44 26 -54 37 -77 79 -17 32 -19 56 -17 275 2 132 -2 264 -7 294 -11 60 -46 113 -90 136 -38 19 -107 19 -145 -1z" fill="#ffc107"/>
</g>
</svg>